<svg xmlns="http://www.w3.org/2000/svg" version="1.1" xmlns:xlink="http://www.w3.org/1999/xlink" xmlns:svgjs="http://svgjs.dev/svgjs" width="2000" height="358" viewBox="0 0 2000 358"><g transform="matrix(1,0,0,1,-1.2120448442968836,-0.4694536166471437)"><svg viewBox="0 0 396 71" data-background-color="#ffffff" preserveAspectRatio="xMidYMid meet" height="358" width="2000" xmlns="http://www.w3.org/2000/svg" xmlns:xlink="http://www.w3.org/1999/xlink"><g id="tight-bounds" transform="matrix(1,0,0,1,0.23998487917077682,0.09310903146729288)"><svg viewBox="0 0 395.52 70.81377466413167" height="70.81377466413167" width="395.52"><g><svg viewBox="0 0 491.4260153776314 87.98475707181356" height="70.81377466413167" width="395.52"><g transform="matrix(1,0,0,1,0,27.188567024865225)"><svg viewBox="0 0 395.52 33.60762302208311" height="33.60762302208311" width="395.52"><g><svg viewBox="0 0 395.52 33.60762302208311" height="33.60762302208311" width="395.52"><g><svg viewBox="0 0 395.52 33.60762302208311" height="33.60762302208311" width="395.52"><g transform="matrix(1,0,0,1,0,0)"><svg width="395.52" viewBox="4.849999904632568 -36.22999954223633 431.29998779296875 36.65999984741211" height="33.60762302208311" data-palette-color="#2a8ed0"><path d="M9.68-35.83L9.68-20.13 11.5-20.13Q12.45-20.13 13.01-20.36 13.58-20.6 14.08-21.18L14.08-21.18 26-34.68Q26.55-35.3 27.06-35.56 27.58-35.83 28.38-35.83L28.38-35.83 32.5-35.83 18.85-20.4Q18.32-19.83 17.86-19.43 17.4-19.03 16.88-18.78L16.88-18.78Q17.57-18.55 18.1-18.1 18.63-17.65 19.2-16.98L19.2-16.98 33.45 0 29.25 0Q28.78 0 28.45-0.08 28.13-0.15 27.89-0.28 27.65-0.4 27.45-0.6 27.25-0.8 27.05-1.03L27.05-1.03 14.68-15.25Q14.4-15.55 14.16-15.76 13.93-15.98 13.61-16.13 13.3-16.28 12.89-16.34 12.48-16.4 11.88-16.4L11.88-16.4 9.68-16.4 9.68 0 4.85 0 4.85-35.83 9.68-35.83ZM52.32-3.85L52.32-3.85Q54.55-3.85 56.3-4.6 58.05-5.35 59.26-6.7 60.47-8.05 61.11-9.93 61.75-11.8 61.75-14.05L61.75-14.05 61.75-35.83 66.57-35.83 66.57-14.05Q66.57-10.95 65.59-8.3 64.6-5.65 62.76-3.71 60.92-1.78 58.27-0.68 55.62 0.43 52.32 0.43L52.32 0.43Q49.02 0.43 46.37-0.68 43.72-1.78 41.87-3.71 40.02-5.65 39.04-8.3 38.05-10.95 38.05-14.05L38.05-14.05 38.05-35.83 42.87-35.83 42.87-14.08Q42.87-11.83 43.51-9.95 44.15-8.08 45.36-6.73 46.57-5.38 48.34-4.61 50.1-3.85 52.32-3.85ZM77.4-35.83L77.4-35.83Q78.05-35.83 78.36-35.66 78.67-35.5 79.07-35L79.07-35 99.82-8Q99.75-8.65 99.72-9.26 99.7-9.88 99.7-10.45L99.7-10.45 99.7-35.83 103.95-35.83 103.95 0 101.5 0Q100.92 0 100.53-0.2 100.15-0.4 99.77-0.88L99.77-0.88 79.05-27.85Q79.1-27.23 79.12-26.63 79.15-26.03 79.15-25.53L79.15-25.53 79.15 0 74.9 0 74.9-35.83 77.4-35.83ZM143.74-17.9L143.74-17.9Q143.74-13.88 142.47-10.58 141.19-7.28 138.87-4.93 136.54-2.58 133.29-1.29 130.04 0 126.09 0L126.09 0 112.69 0 112.69-35.83 126.09-35.83Q130.04-35.83 133.29-34.54 136.54-33.25 138.87-30.89 141.19-28.53 142.47-25.23 143.74-21.93 143.74-17.9ZM138.77-17.9L138.77-17.9Q138.77-21.2 137.87-23.8 136.97-26.4 135.32-28.2 133.67-30 131.32-30.95 128.97-31.9 126.09-31.9L126.09-31.9 117.57-31.9 117.57-3.93 126.09-3.93Q128.97-3.93 131.32-4.88 133.67-5.83 135.32-7.61 136.97-9.4 137.87-12 138.77-14.6 138.77-17.9ZM150.34-35.83L172.42-35.83 172.42-31.88 155.22-31.88 155.22-19.98 169.14-19.98 169.14-16.18 155.22-16.18 155.22-3.95 172.42-3.95 172.42 0 150.34 0 150.34-35.83ZM181.89-35.83L181.89-35.83Q182.54-35.83 182.85-35.66 183.16-35.5 183.56-35L183.56-35 204.31-8Q204.24-8.65 204.21-9.26 204.19-9.88 204.19-10.45L204.19-10.45 204.19-35.83 208.44-35.83 208.44 0 205.99 0Q205.41 0 205.03-0.2 204.64-0.4 204.26-0.88L204.26-0.88 183.54-27.85Q183.59-27.23 183.61-26.63 183.64-26.03 183.64-25.53L183.64-25.53 183.64 0 179.39 0 179.39-35.83 181.89-35.83ZM213.54-35.83L241.59-35.83 241.59-31.75 230.01-31.75 230.01 0 225.16 0 225.16-31.75 213.54-31.75 213.54-35.83ZM255.68-14.95L252.01-14.95 252.01 0 247.18 0 247.18-35.83 257.31-35.83Q260.71-35.83 263.18-35.14 265.66-34.45 267.27-33.15 268.88-31.85 269.66-30.01 270.43-28.18 270.43-25.9L270.43-25.9Q270.43-24 269.83-22.35 269.23-20.7 268.1-19.39 266.96-18.07 265.32-17.15 263.68-16.23 261.61-15.75L261.61-15.75Q262.51-15.23 263.21-14.23L263.21-14.23 273.66 0 269.36 0Q268.03 0 267.41-1.03L267.41-1.03 258.11-13.83Q257.68-14.43 257.18-14.69 256.68-14.95 255.68-14.95L255.68-14.95ZM252.01-32L252.01-18.48 257.08-18.48Q259.21-18.48 260.82-18.99 262.43-19.5 263.52-20.44 264.61-21.38 265.16-22.68 265.71-23.98 265.71-25.55L265.71-25.55Q265.71-28.75 263.6-30.38 261.48-32 257.31-32L257.31-32 252.01-32ZM294.03-35.83L308.36 0 304.61 0Q303.96 0 303.56-0.33 303.16-0.65 302.96-1.15L302.96-1.15 299.61-9.8 283.53-9.8 280.18-1.15Q280.01-0.7 279.58-0.35 279.16 0 278.53 0L278.53 0 274.78 0 289.11-35.83 294.03-35.83ZM290.51-27.85L284.88-13.3 298.26-13.3 292.63-27.88Q292.08-29.23 291.56-31.25L291.56-31.25Q291.28-30.23 291.02-29.36 290.76-28.5 290.51-27.85L290.51-27.85ZM337.08-7.4L337.08-7.4Q337.48-7.4 337.8-7.08L337.8-7.08 339.7-5Q337.5-2.45 334.37-1.03 331.23 0.4 326.8 0.4L326.8 0.4Q322.93 0.4 319.78-0.94 316.63-2.27 314.4-4.69 312.18-7.1 310.95-10.48 309.73-13.85 309.73-17.9L309.73-17.9Q309.73-21.95 311.04-25.33 312.35-28.7 314.73-31.13 317.1-33.55 320.42-34.89 323.73-36.23 327.73-36.23L327.73-36.23Q331.68-36.23 334.54-35 337.4-33.77 339.63-31.68L339.63-31.68 338.05-29.45Q337.88-29.2 337.65-29.04 337.43-28.88 337-28.88L337-28.88Q336.68-28.88 336.32-29.11 335.95-29.35 335.45-29.7 334.95-30.05 334.28-30.45 333.6-30.85 332.68-31.2 331.75-31.55 330.53-31.79 329.3-32.02 327.7-32.02L327.7-32.02Q324.83-32.02 322.44-31.04 320.05-30.05 318.33-28.23 316.6-26.4 315.64-23.78 314.68-21.15 314.68-17.9L314.68-17.9Q314.68-14.55 315.64-11.93 316.6-9.3 318.27-7.49 319.93-5.68 322.2-4.73 324.48-3.78 327.1-3.78L327.1-3.78Q328.7-3.78 329.98-3.96 331.25-4.15 332.34-4.55 333.43-4.95 334.37-5.56 335.3-6.18 336.25-7.03L336.25-7.03Q336.68-7.4 337.08-7.4ZM351.4-35.83L351.4-20.13 353.23-20.13Q354.18-20.13 354.74-20.36 355.3-20.6 355.8-21.18L355.8-21.18 367.73-34.68Q368.28-35.3 368.79-35.56 369.3-35.83 370.1-35.83L370.1-35.83 374.23-35.83 360.58-20.4Q360.05-19.83 359.59-19.43 359.13-19.03 358.6-18.78L358.6-18.78Q359.3-18.55 359.83-18.1 360.35-17.65 360.93-16.98L360.93-16.98 375.18 0 370.98 0Q370.5 0 370.18-0.08 369.85-0.15 369.61-0.28 369.38-0.4 369.18-0.6 368.98-0.8 368.78-1.03L368.78-1.03 356.4-15.25Q356.13-15.55 355.89-15.76 355.65-15.98 355.34-16.13 355.03-16.28 354.61-16.34 354.2-16.4 353.6-16.4L353.6-16.4 351.4-16.4 351.4 0 346.58 0 346.58-35.83 351.4-35.83ZM380.12-35.83L402.2-35.83 402.2-31.88 385-31.88 385-19.98 398.92-19.98 398.92-16.18 385-16.18 385-3.95 402.2-3.95 402.2 0 380.12 0 380.12-35.83ZM418.17-14.95L414.5-14.95 414.5 0 409.67 0 409.67-35.83 419.8-35.83Q423.2-35.83 425.67-35.14 428.15-34.45 429.76-33.15 431.37-31.85 432.15-30.01 432.92-28.18 432.92-25.9L432.92-25.9Q432.92-24 432.32-22.35 431.72-20.7 430.58-19.39 429.45-18.07 427.81-17.15 426.17-16.23 424.1-15.75L424.1-15.75Q425-15.23 425.7-14.23L425.7-14.23 436.15 0 431.85 0Q430.52 0 429.9-1.03L429.9-1.03 420.6-13.83Q420.17-14.43 419.67-14.69 419.17-14.95 418.17-14.95L418.17-14.95ZM414.5-32L414.5-18.48 419.57-18.48Q421.7-18.48 423.31-18.99 424.92-19.5 426.01-20.44 427.1-21.38 427.65-22.68 428.2-23.98 428.2-25.55L428.2-25.55Q428.2-28.75 426.08-30.38 423.97-32 419.8-32L419.8-32 414.5-32Z" opacity="1" transform="matrix(1,0,0,1,0,0)" fill="#2a8ed0" class="undefined-text-0" data-fill-palette-color="primary" id="text-0"></path></svg></g></svg></g></svg></g></svg></g><g transform="matrix(1,0,0,1,403.45395321256126,0)"><svg viewBox="0 0 87.97206216507014 87.98475707181356" height="87.98475707181356" width="87.97206216507014"><g><svg xmlns="http://www.w3.org/2000/svg" xmlns:xlink="http://www.w3.org/1999/xlink" version="1.1" x="0" y="0" viewBox="216.1884765625 216.1840057373047 79.62149047851562 79.63298034667969" enable-background="new 206 206 100 100" xml:space="preserve" height="87.98475707181356" width="87.97206216507014" class="icon-icon-0" data-fill-palette-color="accent" id="icon-0"><g fill="#2a8ed0" data-fill-palette-color="accent"><path d="M293.8 284.095c-0.013-0.014-0.026-0.025-0.04-0.039l-30.42-27.754c0.463-0.479 0.459-1.24-0.013-1.711-0.478-0.477-1.25-0.477-1.727 0l-1.152 1.152-2.05-2.05c3.036-4.035 4.68-8.921 4.679-14.06 0-6.263-2.438-12.152-6.869-16.581-4.429-4.429-10.317-6.868-16.581-6.868-6.264 0-12.152 2.439-16.582 6.868-9.142 9.143-9.142 24.02 0 33.163 4.43 4.428 10.318 6.868 16.582 6.868 5.139 0 10.025-1.643 14.06-4.678l2.049 2.049-1.151 1.152c-0.477 0.477-0.477 1.25 0 1.727 0.239 0.238 0.551 0.357 0.864 0.357 0.306 0 0.611-0.115 0.848-0.346l27.755 30.42c0.012 0.014 0.024 0.027 0.038 0.041 1.296 1.297 3.021 2.012 4.854 2.012 1.833 0 3.558-0.715 4.854-2.012 1.298-1.297 2.012-3.021 2.012-4.854C295.811 287.117 295.097 285.392 293.8 284.095zM224.775 254.486c-8.191-8.19-8.191-21.518 0-29.708 3.967-3.968 9.242-6.152 14.854-6.152 5.611 0 10.886 2.185 14.854 6.152 3.967 3.968 6.153 9.243 6.153 14.854 0 5.611-2.186 10.886-6.153 14.854-3.967 3.969-9.243 6.152-14.854 6.152C234.017 260.638 228.742 258.455 224.775 254.486zM256.209 256.213c0.21-0.21 0.415-0.424 0.616-0.641l1.896 1.896-1.256 1.256-1.897-1.896C255.785 256.627 255.999 256.423 256.209 256.213zM292.073 292.078c-0.834 0.834-1.945 1.295-3.127 1.295-1.172 0-2.275-0.453-3.109-1.277l-27.808-30.479 3.585-3.584 30.479 27.809c0.824 0.832 1.277 1.936 1.277 3.109C293.369 290.131 292.908 291.242 292.073 292.078z" fill="#2a8ed0" data-fill-palette-color="accent"></path><path d="M226.607 226.612c-0.477 0.477-0.477 1.25 0 1.727 0.477 0.477 1.25 0.477 1.727 0 6.228-6.228 16.361-6.228 22.588 0 0.239 0.238 0.551 0.357 0.863 0.357s0.625-0.119 0.864-0.357c0.477-0.477 0.477-1.25 0-1.727C245.469 219.432 233.787 219.431 226.607 226.612z" fill="#2a8ed0" data-fill-palette-color="accent"></path></g></svg></g></svg></g></svg></g><defs></defs></svg><rect width="395.52" height="70.81377466413167" fill="none" stroke="none" visibility="hidden"></rect></g></svg></g></svg>